<?xml version="1.0" encoding="utf-8"?>
<!-- Generator: Adobe Illustrator 23.0.3, SVG Export Plug-In . SVG Version: 6.00 Build 0)  -->
<svg version="1.1" id="Layer_1" xmlns="http://www.w3.org/2000/svg" xmlns:xlink="http://www.w3.org/1999/xlink" x="0px" y="0px"
	 width="354.3px" height="354.3px" viewBox="0 0 354.3 354.3" style="enable-background:new 0 0 354.3 354.3;" xml:space="preserve"
	>
<g>
	<path d="M224.7,194.7l55.1-55.1l55.1,55.1l-10,10l-34.6-34.6c0.2,2.4,0.2,4.7,0.2,7c0,62.6-50.8,113.4-113.4,113.4
		c-30,0-59-12-80.2-33.2l10-10c18.7,18.7,43.8,29.1,70.2,29.1c54.8,0,99.2-44.4,99.2-99.2c0-4.5-0.3-8.8-0.8-13l-40.8,40.6
		L224.7,194.7z M64,184.2c-0.2-2.4-0.2-4.7-0.2-7c0-62.6,50.8-113.4,113.4-113.4c30,0,59,12,80.2,33.2l-10,10
		C228.7,88.4,203.6,78,177.2,78C122.4,78,78,122.4,78,177.2c0,4.5,0.3,8.8,0.8,13l40.8-40.6l10,10l-55.1,55.1l-55.1-55.1l10-10
		L64,184.2z"/>
</g>
</svg>
